<?xml version="1.0" encoding="UTF-8"?>
<!DOCTYPE svg PUBLIC "-//W3C//DTD SVG 1.1//EN" "http://www.w3.org/Graphics/SVG/1.1/DTD/svg11.dtd">
<!-- Creator: CorelDRAW -->
<svg xmlns="http://www.w3.org/2000/svg" xml:space="preserve" width="492px" height="512px" version="1.1" shape-rendering="geometricPrecision" text-rendering="geometricPrecision" image-rendering="optimizeQuality" fill-rule="evenodd" clip-rule="evenodd"
viewBox="0 0 492 512.324"
 xmlns:xlink="http://www.w3.org/1999/xlink"
 xmlns:xodm="http://www.corel.com/coreldraw/odm/2003">
 <g id="Layer_x0020_1">
  <metadata id="CorelCorpID_0Corel-Layer"/>
  <circle fill="#39BF46" cx="231.181" cy="231.181" r="231.181"/>
  <path fill="#44944D" d="M437.688 127.17c33.912,40.724 54.312,93.089 54.312,150.226 0,129.746 -105.182,234.928 -234.928,234.928 -103.431,0 -191.249,-66.842 -222.619,-159.683 40.74,65.85 113.605,109.721 196.728,109.721 127.682,0 231.181,-103.499 231.181,-231.181 0,-37.412 -8.898,-72.749 -24.674,-104.011z"/>
  <path fill="white" fill-rule="nonzero" d="M221.046 243.31c-9.047,-8.056 -8.801,-15.231 0,-23.395l72.322 -67.471c9.85,-6.175 20.122,-2.549 19.848,10.311l-0.382 135.736c-0.853,13.937 -8.802,17.76 -20.544,11.31l-71.244 -66.491zm-36.637 69.412l-26.228 0c-4.969,0 -9.027,-4.087 -9.027,-9.037l0 -145.027c0,-4.94 4.087,-9.027 9.027,-9.027l26.228 0c4.95,0 9.037,4.058 9.037,9.027l0 145.027c0,4.979 -4.068,9.037 -9.037,9.037z"/>
 </g>
</svg>
